<svg version="1" xmlns="http://www.w3.org/2000/svg" width="436" height="436" viewBox="0 0 327.000000 327.000000"><path d="M0 163.5V327h327V0H0v163.5zM202.1 43.1c28.2 2 43.9 7.9 58.6 22.4 13.4 13.2 18.8 27.8 16.4 44.3-2.4 16.9-14.8 33.3-31.4 41.7l-7.9 3.9 8 2.7c17 5.7 30.4 15.3 37.6 26.8 18.8 29.9 4.4 71.1-30.7 88-20.3 9.8-24.2 10.1-121.4 10.8l-81.3.6V42h68.4c38.4 0 75.1.5 83.7 1.1z"/><path d="M108.9 82.7c-.1.5-.2 13.1-.3 28.1l-.3 27.3 42.6-.3 42.6-.3 7.2-2.7c14-5 19.9-12.6 19.7-25.3-.1-11.7-5.5-19.1-17.1-23.5-5.2-2-8.4-2.3-32.8-3.1-35.2-1-61.5-1.1-61.6-.2zM108 211.1v32l47.3-.3c45.4-.4 47.5-.5 53.7-2.6 16.8-5.6 24.9-18.8 21.6-35-3.1-15.1-15-23.1-37.3-25.2-6-.5-27.6-1-48-1H108v32.1z"/></svg>